<svg xmlns="http://www.w3.org/2000/svg" width="32" height="32" id="drawing"><path style="isolation:auto;mix-blend-mode:normal" d="m18.361 1024.466-.877 2.18a9.45 9.45 0 0 0-3.166.02l-.916-2.15-3.863 1.648.92 2.155a9.45 9.45 0 0 0-2.215 2.261l-2.178-.875-1.566 3.897 2.18.877a9.45 9.45 0 0 0 .023 3.166l-2.15.918 1.646 3.863 2.156-.92a9.45 9.45 0 0 0 2.262 2.215l-.875 2.176 3.897 1.568.877-2.181a9.45 9.45 0 0 0 3.166-.022l.916 2.15 3.863-1.647-.92-2.156a9.45 9.45 0 0 0 2.215-2.262l2.176.875 1.568-3.896-2.18-.877a9.45 9.45 0 0 0-.023-3.166l2.15-.916-1.646-3.863-.707.3-3.274 3.272a6.5 6.5 0 0 1 .68 2.889 6.5 6.5 0 0 1-6.5 6.5 6.5 6.5 0 0 1-6.5-6.5 6.5 6.5 0 0 1 6.5-6.5 6.5 6.5 0 0 1 2.03.33l3.896-3.897-3.565-1.433z" color="#000" opacity=".15" overflow="visible" transform="translate(-.416 -1019.965)"></path><path style="isolation:auto;mix-blend-mode:normal" d="M15 1020.362c-.831 0-1.5.67-1.5 1.5v26.5l2 4 2-4v-26.5c0-.83-.669-1.5-1.5-1.5h-1z" color="#000" opacity=".15" overflow="visible" transform="rotate(45 1246.999 525.877)"></path><path d="M16 1020.362c.831 0 1.5.67 1.5 1.5v23.5l-2 4v-29h.5z" color="#000" opacity=".15" overflow="visible" style="isolation:auto;mix-blend-mode:normal" transform="rotate(45 1246.999 525.877)"></path><path fill="#f05542" color="#000" overflow="visible" style="isolation:auto;mix-blend-mode:normal" d="M14.5 1023.362h4v25h-4z" transform="rotate(45 1246.999 525.877)"></path><path style="isolation:auto;mix-blend-mode:normal" fill="#e9eded" d="M14.5 1048.362h4l-2 4zm0-25v-1.5c0-.83.669-1.5 1.5-1.5h1c.831 0 1.5.67 1.5 1.5v1.5z" color="#000" overflow="visible" transform="rotate(45 1246.999 525.877)"></path><path fill="none" stroke="#34485c" d="M7.452 25.236 25.13 7.558"></path><path style="isolation:auto;mix-blend-mode:normal" fill="#34485c" d="m16 1051.362.5 1 .5-1h-1zM14.5 1023.362h4v1h-4z" color="#000" overflow="visible" transform="rotate(45 1246.999 525.877)"></path><path style="isolation:auto;mix-blend-mode:normal" fill="#4bbfeb" d="m19.361 4.104-.877 2.18a9.45 9.45 0 0 0-3.166.02l-.916-2.15-3.863 1.649.92 2.154a9.45 9.45 0 0 0-2.215 2.262l-2.178-.875L5.5 13.24l2.18.877a9.45 9.45 0 0 0 .023 3.166l-2.15.918 1.646 3.863 2.156-.92a9.45 9.45 0 0 0 2.262 2.215l-.875 2.176 3.897 1.569.877-2.182a9.45 9.45 0 0 0 3.166-.022l.916 2.15 3.863-1.646-.92-2.156a9.45 9.45 0 0 0 2.215-2.262l2.176.875 1.568-3.896-2.18-.877a9.45 9.45 0 0 0-.023-3.166l2.15-.916-1.646-3.863-.707.3-3.274 3.272a6.5 6.5 0 0 1 .68 2.889 6.5 6.5 0 0 1-6.5 6.5 6.5 6.5 0 0 1-6.5-6.5 6.5 6.5 0 0 1 6.5-6.5 6.5 6.5 0 0 1 2.03.33l3.896-3.897-3.565-1.433Z" color="#000" overflow="visible" transform="translate(-.416 .397)"></path></svg>